# xmcd CD database file generated by OrangeCD 4.2
#
# Track frame offsets:
#	150
#	12649
#	31692
#	47975
#	68476
#	89412
#	106176
#	126056
#
# Disc length: 1798 seconds
#
# Revision: 0
# Processed by: cddbd v1.4PL0 Copyright (c) Steve Scherf et al.
# Submitted via: OrangeCD 4.2
#
DISCID=5f070408
DTITLE=Desperado - Oameni De Treaba
DYEAR=1900
DGENRE=Country
TTITLE0=Weekend La Padure
TTITLE1=Vine O Vreme
TTITLE2=Lenea
TTITLE3=Oameni De Treaba
TTITLE4=Nu Sunt De Vina
TTITLE5=Vaccinul
TTITLE6=Unde Pleci Si Cind Te-ntorci
TTITLE7=Oameni De Treaba - Se Intoarce
EXTD=
EXTT0=
EXTT1=
EXTT2=
EXTT3=
EXTT4=
EXTT5=
EXTT6=
EXTT7=
PLAYORDER=
